<svg viewBox="0 0 100 23" fill="none" xmlns="http://www.w3.org/2000/svg">
<path d="M35.6534 12.2821L36.9714 16.6532H33.9183L32.7504 12.8076H31.1488V16.6532H28.0707V4.85789L27.4117 3.47314H34.4188C35.8286 3.47314 36.9631 4.61597 36.9631 6.0174V9.75454C36.9714 10.8056 36.4459 11.7316 35.6534 12.2821ZM31.1488 10.0632H33.3928C33.6764 10.0632 33.9016 9.8463 33.9016 9.55433V6.71811C33.9016 6.43449 33.6847 6.20926 33.3928 6.20926H31.1488V10.0632Z" fill="#ffffff"/>
<path d="M42.2445 13.8994H47.5166L45.9817 16.6439H39.1748V4.85691L38.5157 3.47217H47.5249L45.99 6.21663H42.2529V8.52731H46.5156L44.9807 11.2968H42.2529V13.8994H42.2445Z" fill="#ffffff"/>
<path d="M58.1678 6.01642V9.75356C58.1678 11.4469 56.8081 12.8067 55.1398 12.8067H52.3536V16.6522H49.2755V4.85691L48.6165 3.47217H55.6236C57.025 3.47217 58.1678 4.615 58.1678 6.01642ZM55.0897 6.71714C55.0897 6.43351 54.8728 6.20829 54.5809 6.20829H52.3369V10.0539H54.5809C54.8645 10.0539 55.0897 9.83698 55.0897 9.54501V6.71714Z" fill="#ffffff"/>
<path d="M63.4406 13.8994H68.7126L67.1777 16.6439H60.3708V4.85691L59.7118 3.47217H68.721L67.1861 6.21663H63.4489V8.52731H67.7116L66.1767 11.2968H63.4489V13.8994H63.4406Z" fill="#ffffff"/>
<path d="M76.8203 13.8995H73.5002L72.8829 16.6439H69.5879L72.9079 4.84861L72.2489 3.46387H77.1456L80.7242 16.6439H77.4292L76.8203 13.8995ZM76.228 11.155L75.1769 6.43356L74.1258 11.155H76.228Z" fill="#ffffff"/>
<path d="M89.9598 3.47217V6.21663H86.9984V16.6522H83.9203V6.21663H80.9506V3.47217H89.9598Z" fill="#ffffff"/>
<path d="M90.4932 15.5347V16.6525H89.2419V15.5347H90.4932Z" fill="#ffffff"/>
<path d="M94.7722 13.3489V16.6523H92.1862C91.9026 16.6523 91.669 16.5522 91.4605 16.352C91.2603 16.1518 91.1602 15.9099 91.1602 15.6179V12.3396C91.1602 12.0559 91.2603 11.814 91.4605 11.6055C91.6607 11.4053 91.9026 11.3052 92.1862 11.3052H94.8639L94.2383 12.423H92.62C92.5616 12.423 92.5115 12.4397 92.4698 12.4814C92.4281 12.5231 92.4114 12.5648 92.4114 12.6232V15.351C92.4114 15.401 92.4281 15.4511 92.4698 15.4928C92.5115 15.5345 92.5616 15.5512 92.62 15.5512H93.5209V13.3489H94.7722Z" fill="#ffffff"/>
<path d="M99.2767 13.3489V16.6523H96.6907C96.4071 16.6523 96.1735 16.5522 95.965 16.352C95.7647 16.1518 95.6646 15.9099 95.6646 15.6179V12.3396C95.6646 12.0559 95.7647 11.814 95.965 11.6055C96.1652 11.4053 96.4071 11.3052 96.6907 11.3052H99.3684L98.7428 12.423H97.1245C97.0661 12.423 97.016 12.4397 96.9743 12.4814C96.9326 12.5231 96.9159 12.5648 96.9159 12.6232V15.351C96.9159 15.401 96.9326 15.4511 96.9743 15.4928C97.016 15.5345 97.0661 15.5512 97.1245 15.5512H98.0254V13.3489H99.2767Z" fill="#ffffff"/>
<path d="M5.71084 22.6782L11.4217 18.1096L10.2795 12.9698L8.56625 14.6831L5.71084 6.1168L16.5614 7.83005L12.5638 11.2566L13.706 15.8252L21.1301 16.9674V12.3987L18.8458 11.8276L21.1301 9.5433L20.559 3.26138L0 0.977051L5.71084 22.6782Z" fill="#00ACF6"/>
</svg>
